<svg width="586" height="230" viewBox="0 0 586 230" fill="none" xmlns="http://www.w3.org/2000/svg">
<rect width="586" height="230" fill="#F5F5F5"/>
<path d="M139.339 0.545448V-0.454552H138.339V0.545448H139.339ZM187.006 0.545448H188.006V-0.454552H187.006V0.545448ZM175.227 190.112L174.384 189.575L174.381 189.579L175.227 190.112ZM142.532 218.955L142.97 219.854L142.973 219.852L142.532 218.955ZM44.4458 218.955L44.0043 219.852L44.0081 219.854L44.4458 218.955ZM11.7505 190.112L10.9048 190.646L10.9048 190.646L11.7505 190.112ZM0.0814984 0.545448V-0.454552H-0.918502V0.545448H0.0814984ZM47.7484 0.545448H48.7484V-0.454552H47.7484V0.545448ZM53.3628 165.783L52.4904 166.272L52.4945 166.28L53.3628 165.783ZM69.4352 181.526L68.9511 182.401L68.9511 182.401L69.4352 181.526ZM117.653 181.526L117.168 180.651L117.164 180.653L117.653 181.526ZM133.615 165.783L132.747 165.287L132.743 165.294L133.615 165.783ZM139.339 1.54545H187.006V-0.454552H139.339V1.54545ZM186.006 0.545448V146.959H188.006V0.545448H186.006ZM186.006 146.959C186.006 163.232 182.122 177.425 174.384 189.575L176.071 190.649C184.038 178.14 188.006 163.564 188.006 146.959H186.006ZM174.381 189.579C166.708 201.741 155.954 211.234 142.09 218.057L142.973 219.852C157.144 212.878 168.188 203.143 176.073 190.646L174.381 189.579ZM142.094 218.055C128.237 224.803 112.063 228.192 93.5439 228.192V230.192C112.307 230.192 128.792 226.757 142.97 219.854L142.094 218.055ZM93.5439 228.192C74.951 228.192 58.7401 224.802 44.8836 218.055L44.0081 219.854C58.1866 226.757 74.7077 230.192 93.5439 230.192V228.192ZM44.8874 218.057C31.0233 211.234 20.27 201.741 12.5963 189.579L10.9048 190.646C18.7898 203.143 29.8334 212.878 44.0043 219.852L44.8874 218.057ZM12.5963 189.579C4.93015 177.429 1.0815 163.234 1.0815 146.959H-0.918502C-0.918502 163.562 3.01221 178.137 10.9048 190.646L12.5963 189.579ZM1.0815 146.959V0.545448H-0.918502V146.959H1.0815ZM0.0814984 1.54545H47.7484V-0.454552H0.0814984V1.54545ZM46.7484 0.545448V142.886H48.7484V0.545448H46.7484ZM46.7484 142.886C46.7484 151.622 48.654 159.427 52.4904 166.272L54.2351 165.294C50.5857 158.783 48.7484 151.322 48.7484 142.886H46.7484ZM52.4945 166.28C56.4041 173.121 61.8963 178.498 68.9511 182.401L69.9193 180.651C63.1767 176.921 57.954 171.803 54.231 165.287L52.4945 166.28ZM68.9511 182.401C76.0206 186.311 84.2287 188.25 93.5439 188.25V186.25C84.5115 186.25 76.6471 184.372 69.9193 180.651L68.9511 182.401ZM93.5439 188.25C102.931 188.25 111.141 186.312 118.141 182.398L117.164 180.653C110.513 184.372 102.651 186.25 93.5439 186.25V188.25ZM118.137 182.401C125.193 178.497 130.651 173.118 134.487 166.272L132.743 165.294C129.093 171.806 123.909 176.921 117.168 180.651L118.137 182.401ZM134.483 166.28C138.395 159.433 140.339 151.626 140.339 142.886H138.339C138.339 151.319 136.467 158.777 132.747 165.287L134.483 166.28ZM140.339 142.886V0.545448H138.339V142.886H140.339ZM217.637 39.8459H216.637V40.8459H217.637V39.8459ZM217.637 0.545448V-0.454552H216.637V0.545448H217.637ZM402.801 0.545448H403.801V-0.454552H402.801V0.545448ZM402.801 39.8459V40.8459H403.801V39.8459H402.801ZM333.777 39.8459V38.8459H332.777V39.8459H333.777ZM333.777 226V227H334.777V226H333.777ZM286.661 226H285.661V227H286.661V226ZM286.661 39.8459H287.661V38.8459H286.661V39.8459ZM218.637 39.8459V0.545448H216.637V39.8459H218.637ZM217.637 1.54545H402.801V-0.454552H217.637V1.54545ZM401.801 0.545448V39.8459H403.801V0.545448H401.801ZM402.801 38.8459H333.777V40.8459H402.801V38.8459ZM332.777 39.8459V226H334.777V39.8459H332.777ZM333.777 225H286.661V227H333.777V225ZM287.661 226V39.8459H285.661V226H287.661ZM286.661 38.8459H217.637V40.8459H286.661V38.8459ZM433.294 226H432.294V227H433.294V226ZM433.294 0.545448V-0.454552H432.294V0.545448H433.294ZM585.212 0.545448H586.212V-0.454552H585.212V0.545448ZM585.212 39.8459V40.8459H586.212V39.8459H585.212ZM480.961 39.8459V38.8459H479.961V39.8459H480.961ZM480.961 93.5675H479.961V94.5675H480.961V93.5675ZM577.396 93.5675H578.396V92.5675H577.396V93.5675ZM577.396 132.868V133.868H578.396V132.868H577.396ZM480.961 132.868V131.868H479.961V132.868H480.961ZM480.961 186.7H479.961V187.7H480.961V186.7ZM585.652 186.7H586.652V185.7H585.652V186.7ZM585.652 226V227H586.652V226H585.652ZM434.294 226V0.545448H432.294V226H434.294ZM433.294 1.54545H585.212V-0.454552H433.294V1.54545ZM584.212 0.545448V39.8459H586.212V0.545448H584.212ZM585.212 38.8459H480.961V40.8459H585.212V38.8459ZM479.961 39.8459V93.5675H481.961V39.8459H479.961ZM480.961 94.5675H577.396V92.5675H480.961V94.5675ZM576.396 93.5675V132.868H578.396V93.5675H576.396ZM577.396 131.868H480.961V133.868H577.396V131.868ZM479.961 132.868V186.7H481.961V132.868H479.961ZM480.961 187.7H585.652V185.7H480.961V187.7ZM584.652 186.7V226H586.652V186.7H584.652ZM585.652 225H433.294V227H585.652V225Z" fill="black"/>
</svg>
